<svg width="300" height="200" xmlns="http://www.w3.org/2000/svg">
  <defs>
    <linearGradient id="shingleGradient" x1="0%" y1="0%" x2="100%" y2="100%">
      <stop offset="0%" style="stop-color:#8B4513;stop-opacity:1" />
      <stop offset="50%" style="stop-color:#A0522D;stop-opacity:1" />
      <stop offset="100%" style="stop-color:#654321;stop-opacity:1" />
    </linearGradient>
  </defs>
  <rect width="100%" height="100%" fill="#f0f8ff"/>
  <!-- Shingle rows -->
  <g fill="url(#shingleGradient)" stroke="#5D4037" stroke-width="1">
    <!-- Row 1 -->
    <rect x="20" y="30" width="40" height="25" rx="0" ry="12"/>
    <rect x="65" y="30" width="40" height="25" rx="0" ry="12"/>
    <rect x="110" y="30" width="40" height="25" rx="0" ry="12"/>
    <rect x="155" y="30" width="40" height="25" rx="0" ry="12"/>
    <rect x="200" y="30" width="40" height="25" rx="0" ry="12"/>
    <rect x="245" y="30" width="40" height="25" rx="0" ry="12"/>
    
    <!-- Row 2 (offset) -->
    <rect x="42" y="50" width="40" height="25" rx="0" ry="12"/>
    <rect x="87" y="50" width="40" height="25" rx="0" ry="12"/>
    <rect x="132" y="50" width="40" height="25" rx="0" ry="12"/>
    <rect x="177" y="50" width="40" height="25" rx="0" ry="12"/>
    <rect x="222" y="50" width="40" height="25" rx="0" ry="12"/>
    
    <!-- Row 3 -->
    <rect x="20" y="70" width="40" height="25" rx="0" ry="12"/>
    <rect x="65" y="70" width="40" height="25" rx="0" ry="12"/>
    <rect x="110" y="70" width="40" height="25" rx="0" ry="12"/>
    <rect x="155" y="70" width="40" height="25" rx="0" ry="12"/>
    <rect x="200" y="70" width="40" height="25" rx="0" ry="12"/>
    <rect x="245" y="70" width="40" height="25" rx="0" ry="12"/>
    
    <!-- Row 4 (offset) -->
    <rect x="42" y="90" width="40" height="25" rx="0" ry="12"/>
    <rect x="87" y="90" width="40" height="25" rx="0" ry="12"/>
    <rect x="132" y="90" width="40" height="25" rx="0" ry="12"/>
    <rect x="177" y="90" width="40" height="25" rx="0" ry="12"/>
    <rect x="222" y="90" width="40" height="25" rx="0" ry="12"/>
    
    <!-- Row 5 -->
    <rect x="20" y="110" width="40" height="25" rx="0" ry="12"/>
    <rect x="65" y="110" width="40" height="25" rx="0" ry="12"/>
    <rect x="110" y="110" width="40" height="25" rx="0" ry="12"/>
    <rect x="155" y="110" width="40" height="25" rx="0" ry="12"/>
    <rect x="200" y="110" width="40" height="25" rx="0" ry="12"/>
    <rect x="245" y="110" width="40" height="25" rx="0" ry="12"/>
  </g>
  <text x="150" y="185" font-family="Arial, sans-serif" font-size="14" fill="#333" text-anchor="middle">Asphalt Shingles</text>
</svg>