<svg width="300" height="200" xmlns="http://www.w3.org/2000/svg">
  <defs>
    <linearGradient id="tileGradient" x1="0%" y1="0%" x2="100%" y2="100%">
      <stop offset="0%" style="stop-color:#CD853F;stop-opacity:1" />
      <stop offset="50%" style="stop-color:#D2691E;stop-opacity:1" />
      <stop offset="100%" style="stop-color:#A0522D;stop-opacity:1" />
    </linearGradient>
  </defs>
  <rect width="100%" height="100%" fill="#fff8dc"/>
  <!-- Clay tiles with curved pattern -->
  <g fill="url(#tileGradient)" stroke="#8B4513" stroke-width="1">
    <!-- Row 1 -->
    <path d="M20,40 Q30,30 40,40 Q50,50 60,40 Q70,30 80,40 Q90,50 100,40 Q110,30 120,40 Q130,50 140,40 Q150,30 160,40 Q170,50 180,40 Q190,30 200,40 Q210,50 220,40 Q230,30 240,40 Q250,50 260,40 Q270,30 280,40 L280,70 Q270,60 260,70 Q250,80 240,70 Q230,60 220,70 Q210,80 200,70 Q190,60 180,70 Q170,80 160,70 Q150,60 140,70 Q130,80 120,70 Q110,60 100,70 Q90,80 80,70 Q70,60 60,70 Q50,80 40,70 Q30,60 20,70 Z"/>
    
    <!-- Row 2 -->
    <path d="M20,70 Q30,60 40,70 Q50,80 60,70 Q70,60 80,70 Q90,80 100,70 Q110,60 120,70 Q130,80 140,70 Q150,60 160,70 Q170,80 180,70 Q190,60 200,70 Q210,80 220,70 Q230,60 240,70 Q250,80 260,70 Q270,60 280,70 L280,100 Q270,90 260,100 Q250,110 240,100 Q230,90 220,100 Q210,110 200,100 Q190,90 180,100 Q170,110 160,100 Q150,90 140,100 Q130,110 120,100 Q110,90 100,100 Q90,110 80,100 Q70,90 60,100 Q50,110 40,100 Q30,90 20,100 Z"/>
    
    <!-- Row 3 -->
    <path d="M20,100 Q30,90 40,100 Q50,110 60,100 Q70,90 80,100 Q90,110 100,100 Q110,90 120,100 Q130,110 140,100 Q150,90 160,100 Q170,110 180,100 Q190,90 200,100 Q210,110 220,100 Q230,90 240,100 Q250,110 260,100 Q270,90 280,100 L280,130 Q270,120 260,130 Q250,140 240,130 Q230,120 220,130 Q210,140 200,130 Q190,120 180,130 Q170,140 160,130 Q150,120 140,130 Q130,140 120,130 Q110,120 100,130 Q90,140 80,130 Q70,120 60,130 Q50,140 40,130 Q30,120 20,130 Z"/>
  </g>
  <text x="150" y="185" font-family="Arial, sans-serif" font-size="14" fill="#333" text-anchor="middle">Clay Roof Tiles</text>
</svg>